<svg viewBox="0 0 2282 867" fill="none" xmlns="http://www.w3.org/2000/svg">
	<path d="M474.072 29.738C681.927 16.0633 788.151 108.417 989.84 125.178C1154.39 138.853 1444.59 51.3996 1577.69 18.1246C1740.71 -22.6319 2076.06 -10.6572 2215.55 224.547C2326 410.811 2274.49 571.76 2225.72 666.116C2190.62 724.917 2140.96 791.2 2076.06 811.19C1968.21 844.412 1884.19 817.551 1770.96 781.351L1770.42 781.178C1674.24 750.428 1587.88 741.818 1491.7 762.417C1320.66 789.546 1118.37 866.77 982.986 866.77C780.563 866.77 693.078 779.497 636.766 765.1C505.816 713.68 453.184 767.742 320.693 780.316C115.969 799.816 42.0471 687.662 16.6594 634.787C-8.72827 581.912 -13.9749 457.709 65.8884 383.629C118.122 335.244 163.62 339.569 203.091 283.348C238.878 232.412 257.79 199.449 283.316 158.881C308.842 118.313 384.374 35.6392 474.072 29.738Z" fill="currentColor" />
</svg>
