<svg viewBox="0 0 2468 681" fill="none" xmlns="http://www.w3.org/2000/svg">
	<path d="M512.588 649.686C737.191 662.108 852.613 591.858 1070.75 580.757C1248.71 571.701 1550.7 633.887 1694.37 660.747C1838.04 687.607 2244.07 695.312 2396.37 515.216C2516.98 372.594 2451.42 237.296 2399.31 164.102C2361.74 118.445 2319.4 77.6187 2249.37 61.6187C2132.81 34.9854 2060.69 55.8668 1937.76 82.8208C1833.59 105.661 1721.2 110.697 1617.36 93.944C1432.64 71.4806 1214.46 10.1079 1068.12 8.88432C849.3 7.05479 754.166 73.5561 693.2 84.148C551.312 122.613 494.767 80.4523 351.625 69.5592C130.445 52.6735 49.813 138.482 22.0281 179.023C-5.75694 219.563 -12.2288 315.283 73.6255 373.126C129.778 410.905 178.988 407.982 221.294 451.688C259.652 491.286 279.883 516.874 307.215 548.385C334.546 579.896 415.663 644.325 512.588 649.686Z" fill="currentColor" />
</svg>
