<svg viewBox="0 0 2248 1483" class="home">
	<path d="M530.025 1117.6C450.388 1052.86 343.708 1065.78 304.316 1078.2C267.052 1085.5 178.153 1096.83 130.242 1020.16C82.3319 943.495 119.874 875.491 142.486 825.296C171.43 761.045 161.43 688.462 96.7052 632.025C59.2534 599.368 -10.8266 499.45 1.41711 408.405C21.5702 258.545 142.486 165.618 304.316 202.888C456.06 237.835 529.191 118.497 584.323 74.573C692.93 -11.9552 843.57 -41.4962 1092.17 86.8188C1405.89 248.746 1697.43 74.573 1794.85 47.4191C1964.82 0.0436287 2230.3 18.6681 2247.33 294.466C2256.81 447.805 2151.52 568.133 2058.36 688.462C1965.2 808.791 2009.78 928.094 2025.35 990.881C2058.36 1123.99 1938.05 1244.32 1782.61 1208.64C1636.44 1175.1 1590.47 1205.1 1507.43 1278.04C1441.3 1336.13 1361.53 1439.18 1154.45 1474.33C942.217 1510.34 799.919 1409.9 762.655 1376.89C708.357 1328.79 629.571 1198.53 530.025 1117.6Z" fill="currentColor" />
</svg>
