<svg viewBox="0 0 5000 861" fill="none">
	<path d="M167.51 861H4884.84C4948.44 861 5000 809.442 5000 745.841C5000 661.68 4907.83 606.672 4824.52 594.717C4696.44 576.336 4598.73 474.45 4492 432.384C4322 365.384 4197 414.884 4031.5 542.884C3800.88 721.252 3451.5 516.384 3271.5 365.384C3091.5 214.384 2915.04 204.144 2760.5 221.382C2505 249.882 2219 348.382 2077 365.384C1950.52 380.527 1777.85 421.446 1604.5 180.883C1393 -112.618 984.5 -8.11963 800 205.382C645.203 384.511 522 489.382 344.5 489.382C324.762 489.382 305.094 488.194 285.707 486.06C154.641 471.632 0 561.632 0 693.49C0 786.003 74.9968 861 167.51 861Z" fill="currentColor" />
</svg>
