<svg viewBox="0 0 48 48">
	<path fill="#43A6DD" d="M33 21.036C33 17.964 38 13 38 13s5 4.964 5 8.036C43 24.227 40.5 26 38 26s-5-1.773-5-4.964zM16 11.036C16 7.964 21 3 21 3s5 4.964 5 8.036C26 14.227 23.5 16 21 16s-5-1.773-5-4.964z" />
	<path fill="#EEBC99" d="M44.012 34.26l-17.52 1.523a8 8 0 01-4.663-1.024L17 32h11.268a2.732 2.732 0 00.504-5.418l-10.118-1.897A40 40 0 0011.282 24H3v14.479l16.45 6.857c1.82.683 3.834.673 5.688.205L47 37a2.75 2.75 0 00-2.988-2.74z" />
	<path fill="#5A7A84" d="M7 43H2a1 1 0 01-1-1V23a1 1 0 011-1h5a1 1 0 011 1v19a1 1 0 01-1 1z" />
</svg>
