<svg viewBox="0 0 19 20" fill="none">
	<path d="M15.6361 13.587L12.4097 12.1537C12.0745 12.0038 11.699 11.9691 11.342 12.055C10.9849 12.1409 10.6664 12.3427 10.4361 12.6287L9.50628 13.7913C7.98189 12.8131 6.68425 11.5203 5.70035 9.99958L6.86291 9.06977C7.14869 8.83952 7.35025 8.52119 7.43617 8.16441C7.52209 7.80762 7.48754 7.43243 7.33791 7.09734L5.91529 3.86259C5.75543 3.5024 5.47282 3.21071 5.11786 3.03954C4.7629 2.86837 4.35868 2.82885 3.9773 2.92803L1.24605 3.64053C0.849812 3.74306 0.505316 3.98815 0.278536 4.32886C0.0517556 4.66958 -0.0413696 5.08198 0.0169937 5.48709C0.525771 9.01963 2.165 12.2924 4.6893 14.8154C7.2136 17.3384 10.4872 18.976 14.02 19.4829C14.4248 19.5402 14.8366 19.4463 15.1766 19.2192C15.5166 18.992 15.761 18.6475 15.863 18.2515L16.5755 15.5203C16.6745 15.139 16.6344 14.7348 16.4622 14.3804C16.2901 14.0261 15.9971 13.7448 15.6361 13.587Z" fill="currentColor" />
	<path d="M19.0005 9.99949H16.6255C16.6236 8.1104 15.8723 6.29923 14.5365 4.96345C13.2007 3.62766 11.3896 2.87639 9.50049 2.87451V0.499512C12.0192 0.50234 14.4339 1.50414 16.2149 3.28511C17.9958 5.06609 18.9976 7.4808 19.0005 9.99949Z" fill="currentColor" />
	<path d="M14.2505 9.9995H11.8755C11.8755 9.36961 11.6253 8.76552 11.1799 8.32013C10.7345 7.87473 10.1304 7.62451 9.50049 7.62451V5.24951C10.7603 5.24951 11.9684 5.74996 12.8592 6.64075C13.75 7.53155 14.2505 8.73972 14.2505 9.9995Z" fill="currentColor" />
</svg>
